<svg data-name="Layer 1" data-v-019a3519="" id="Layer_1" viewBox="0 0 951.135 380.211" xmlns="http://www.w3.org/2000/svg"><defs><style>.cls-1{fill:#0c0a7f;stroke-width:0}</style></defs><path class="cls-1" d="M424.168 347.422h41.107l81.288-212.338h-41.107l-34.308 92.724h-.618l-36.781-92.724h-43.271l60.58 141.868zm200.218-58.416c46.98 0 80.052-32.145 80.052-78.197 0-46.362-33.072-77.889-80.052-77.889-48.216 0-80.36 32.763-80.36 77.889s32.144 78.197 80.36 78.197m0-36.472c-23.18 0-39.253-18.235-39.253-41.725 0-23.8 15.763-41.726 39.253-41.726 22.254 0 38.944 17 38.944 41.726s-17.308 41.725-38.944 41.725m102.839 33.69h40.489V58.741h-40.49zm143.858 2.782c46.98 0 80.052-32.145 80.052-78.197 0-46.362-33.071-77.889-80.052-77.889-48.216 0-80.36 32.763-80.36 77.889s32.144 78.197 80.36 78.197m0-36.472c-23.18 0-39.253-18.235-39.253-41.725 0-23.8 15.763-41.726 39.253-41.726 22.254 0 38.945 17 38.945 41.726s-17.309 41.725-38.945 41.725M269.237 58.53c-10.84 9.767-26.153 23.193-32.745 29.497-10.75 10.279-31.059 30.571-31.059 30.571C153.375 50.442 56.407 5.492 48.74 2.605 41.967.055 15.06-7.18 2.423 23.399c-7.48 18.097 3.493 37.316 17.452 44.112 15.72 7.654 48.051 19.372 66.346 30.92 66.197 41.788 79.516 65.855 79.516 65.855s-47.52 55.948-53.21 111.74c-6.817 66.858 69.37 105.247 116.306 31.505 48.903-76.833-4.69-161.912-4.69-161.912s11.964-13.608 31.643-33.092c9.318-9.226 22.417-20.853 33.987-31.229 6.375-5.717 6.197-15.37.642-21.32-6.043-6.473-15.375-6.676-21.178-1.448m-79.555 216.323c-17.596 47.25-48.239 28.841-35.237-16.723 10.394-36.426 30.47-62.677 30.47-62.677s19.694 39.316 4.767 79.4M312.255 25.492c-8.474 0-15.344 6.87-15.344 15.343s6.87 15.344 15.344 15.344 15.343-6.87 15.343-15.344-6.87-15.343-15.343-15.343M568.99 365.234q.437 3.27 2.8 5.452c2.363 2.182 3.598 2.181 6.07 2.181q10.034 0 10.034-10.614v-3.708q-1.165 2.108-3.744 3.634-2.583 1.526-6.507 1.526-3.564 0-6.544-1.307a15.9 15.9 0 0 1-5.162-3.6q-2.18-2.29-3.417-5.452-1.236-3.164-1.235-6.87 0-3.561 1.2-6.69 1.198-3.123 3.344-5.452c1.427-1.55 3.15-2.787 5.16-3.707q3.019-1.381 6.654-1.381 4.143 0 6.725 1.49 2.58 1.49 3.744 3.67V329.9h8.142v32.061q-.001 3.564-.98 6.835a16.1 16.1 0 0 1-3.127 5.815q-2.145 2.546-5.598 4.071-3.455 1.53-8.471 1.529-3.488 0-6.434-1.02-2.942-1.017-5.16-2.762a14 14 0 0 1-3.565-4.107 13.9 13.9 0 0 1-1.708-5.053zm10.034-8.725q4.07-.001 6.58-2.726 2.508-2.727 2.508-7.308 0-2.252-.69-4.106-.692-1.856-1.89-3.163a8 8 0 0 0-2.872-2q-1.674-.69-3.636-.69-4.074 0-6.651 2.69-2.584 2.689-2.583 7.27.001 4.652 2.545 7.343 2.546 2.69 6.689 2.69M624.39 338.26a18.6 18.6 0 0 0-2.763-.218q-4.944.001-7.234 2.69-2.29 2.692-2.29 7.707v16.867h-8.434V329.9h8.216v5.67q1.234-2.906 4-4.506 2.76-1.6 6.251-1.6.799 0 1.381.073c.582.073.678.097.872.144zM643.946 328.809q3.997 0 7.342 1.419 3.344 1.415 5.817 3.925 2.472 2.507 3.853 5.925 1.38 3.417 1.381 7.49 0 4.069-1.38 7.522-1.383 3.455-3.854 5.963-2.474 2.508-5.817 3.925-3.345 1.418-7.342 1.417-3.926.002-7.308-1.417-3.38-1.416-5.815-3.925-2.436-2.507-3.818-5.963-1.38-3.452-1.38-7.523 0-4.072 1.38-7.49 1.382-3.417 3.818-5.924 2.436-2.51 5.815-3.925 3.382-1.42 7.308-1.42m0 30.027q1.962 0 3.744-.728a9.3 9.3 0 0 0 3.163-2.143q1.38-1.418 2.18-3.527t.801-4.87c.001-2.76-.268-3.455-.8-4.836q-.8-2.072-2.181-3.49a8.9 8.9 0 0 0-3.163-2.108c-1.19-.46-2.435-.69-3.744-.69s-2.557.23-3.744.69a8.5 8.5 0 0 0-3.127 2.107q-1.346 1.42-2.181 3.49c-.835 2.07-.836 2.995-.836 4.836s.278 3.465.836 4.871q.836 2.108 2.181 3.527a8.9 8.9 0 0 0 3.127 2.143 9.8 9.8 0 0 0 3.744.728M690.62 361.38q-1.309 2.4-4.106 3.67a14.15 14.15 0 0 1-5.925 1.274q-3.202 0-5.672-1.09-2.473-1.092-4.18-3.017-1.71-1.926-2.617-4.472-.911-2.543-.91-5.526V329.9h8.434v20.792q0 1.675.4 3.127.4 1.455 1.272 2.545a6.34 6.34 0 0 0 2.217 1.744q1.344.655 3.237.654 3.705 0 5.562-2.217 1.853-2.217 1.853-5.707V329.9h8.434v28.936q0 2.18.107 3.816.11 1.637.256 2.654h-8.07q-.147-.581-.218-1.708a34 34 0 0 1-.074-2.217M706.613 379.12V329.9h8.144v4.798q1.307-2.326 4.217-3.962 2.907-1.636 7.052-1.636 3.925 0 6.978 1.417t5.127 3.89q2.072 2.473 3.161 5.852 1.092 3.382 1.092 7.308 0 3.998-1.164 7.378-1.164 3.383-3.344 5.889a15.44 15.44 0 0 1-5.27 3.927q-3.093 1.416-6.871 1.417-3.855 0-6.616-1.417-2.764-1.419-4.145-3.454v17.812zm27.337-31.553q0-5.016-2.618-7.998-2.617-2.981-6.907-2.982-2.109.002-3.853.8a8.75 8.75 0 0 0-2.98 2.218q-1.238 1.418-1.963 3.454-.727 2.037-.726 4.508-.001 5.09 2.69 8.106 2.688 3.018 6.832 3.017 4.216 0 6.871-3.017 2.654-3.016 2.654-8.106"></path></svg>